<?xml version="1.0" encoding="UTF-8" standalone="no"?>
<!-- Created with Inkscape (http://www.inkscape.org/) -->

<svg
   width="56.714287mm"
   height="12.121924mm"
   viewBox="0 0 168.44143 25.456041"
   version="1.1"
   id="svg5"
   xml:space="preserve"
   sodipodi:docname="SharetrackinWordsLogo.svg"
   inkscape:version="1.2.2 (732a01da63, 2022-12-09)"
   xmlns:inkscape="http://www.inkscape.org/namespaces/inkscape"
   xmlns:sodipodi="http://sodipodi.sourceforge.net/DTD/sodipodi-0.dtd"
   xmlns="http://www.w3.org/2000/svg"
   xmlns:svg="http://www.w3.org/2000/svg"><sodipodi:namedview
     id="namedview7"
     pagecolor="#ffffff"
     bordercolor="#000000"
     borderopacity="0.25"
     inkscape:showpageshadow="2"
     inkscape:pageopacity="0.0"
     inkscape:pagecheckerboard="0"
     inkscape:deskcolor="#d1d1d1"
     inkscape:document-units="mm"
     showgrid="false"
     inkscape:zoom="0.71624579"
     inkscape:cx="369.28664"
     inkscape:cy="248.51804"
     inkscape:window-width="1920"
     inkscape:window-height="1057"
     inkscape:window-x="1912"
     inkscape:window-y="-8"
     inkscape:window-maximized="1"
     inkscape:current-layer="layer1" /><defs
     id="defs2"><clipPath
       id="clipPath18"
       clipPathUnits="userSpaceOnUse"><path
         id="path16"
         d="M 0,841.89 H 595.276 V 0 H 0 Z" /></clipPath><clipPath
       id="clipPath84"
       clipPathUnits="userSpaceOnUse"><path
         id="path82"
         d="m 304.063,596.098 h 16.88 v -61.793 h -16.88 z" /></clipPath><clipPath
       id="clipPath88"
       clipPathUnits="userSpaceOnUse"><path
         id="path86"
         d="m 304.063,596.098 h 16.88 v -61.793 h -16.88 z" /></clipPath><linearGradient
       id="linearGradient102"
       spreadMethod="pad"
       gradientTransform="matrix(0,-141.26955,-141.26955,0,301.70508,678.49561)"
       gradientUnits="userSpaceOnUse"
       y2="0"
       x2="1"
       y1="0"
       x1="0"><stop
         id="stop94"
         offset="0"
         style="stop-opacity:1;stop-color:#ffffff" /><stop
         id="stop96"
         offset="0.560606"
         style="stop-opacity:1;stop-color:#ffffff" /><stop
         id="stop98"
         offset="0.66132988"
         style="stop-opacity:1;stop-color:#ffffff" /><stop
         id="stop100"
         offset="1"
         style="stop-opacity:1;stop-color:#343538" /></linearGradient><mask
       id="mask104"
       height="1"
       width="1"
       y="0"
       x="0"
       maskUnits="userSpaceOnUse"><g
         id="g128"><g
           id="g126"
           clip-path="url(#clipPath84)"><path
             id="path106"
             style="fill:#000000;fill-opacity:1;fill-rule:nonzero;stroke:none"
             d="m 304.063,596.098 h 16.88 v -61.793 h -16.88 z" /><g
             id="g124"><g
               id="g108" /><g
               id="g122"><g
                 id="g120"
                 clip-path="url(#clipPath88)"><g
                   id="g118"><g
                     id="g116"><g
                       id="g114"><g
                         id="g112"><path
                           id="path110"
                           style="fill:url(#linearGradient102);stroke:none"
                           d="m 271.524,684.195 h 60.363 V 528.883 h -60.363 z" /></g></g></g></g></g></g></g></g></g></mask><clipPath
       id="clipPath136"
       clipPathUnits="userSpaceOnUse"><path
         id="path134"
         d="m 304.063,596.098 h 16.88 v -61.793 h -16.88 z" /></clipPath><clipPath
       id="clipPath140"
       clipPathUnits="userSpaceOnUse"><path
         id="path138"
         d="m 304.063,596.098 h 16.88 v -61.793 h -16.88 z" /></clipPath><clipPath
       id="clipPath168"
       clipPathUnits="userSpaceOnUse"><path
         id="path166"
         d="m 278.86,562.836 h 16.879 V 520.005 H 278.86 Z" /></clipPath><clipPath
       id="clipPath172"
       clipPathUnits="userSpaceOnUse"><path
         id="path170"
         d="m 278.86,562.836 h 16.879 V 520.005 H 278.86 Z" /></clipPath><linearGradient
       id="linearGradient186"
       spreadMethod="pad"
       gradientTransform="matrix(0,-141.26955,-141.26955,0,276.50146,664.1958)"
       gradientUnits="userSpaceOnUse"
       y2="0"
       x2="1"
       y1="0"
       x1="0"><stop
         id="stop178"
         offset="0"
         style="stop-opacity:1;stop-color:#ffffff" /><stop
         id="stop180"
         offset="0.560606"
         style="stop-opacity:1;stop-color:#ffffff" /><stop
         id="stop182"
         offset="0.66132988"
         style="stop-opacity:1;stop-color:#ffffff" /><stop
         id="stop184"
         offset="1"
         style="stop-opacity:1;stop-color:#343538" /></linearGradient><mask
       id="mask188"
       height="1"
       width="1"
       y="0"
       x="0"
       maskUnits="userSpaceOnUse"><g
         id="g212"><g
           id="g210"
           clip-path="url(#clipPath168)"><path
             id="path190"
             style="fill:#000000;fill-opacity:1;fill-rule:nonzero;stroke:none"
             d="m 278.86,562.836 h 16.879 V 520.005 H 278.86 Z" /><g
             id="g208"><g
               id="g192" /><g
               id="g206"><g
                 id="g204"
                 clip-path="url(#clipPath172)"><g
                   id="g202"><g
                     id="g200"><g
                       id="g198"><g
                         id="g196"><path
                           id="path194"
                           style="fill:url(#linearGradient186);stroke:none"
                           d="m 246.32,669.895 h 60.363 V 514.583 H 246.32 Z" /></g></g></g></g></g></g></g></g></g></mask><clipPath
       id="clipPath220"
       clipPathUnits="userSpaceOnUse"><path
         id="path218"
         d="m 278.86,562.836 h 16.879 V 520.005 H 278.86 Z" /></clipPath><clipPath
       id="clipPath224"
       clipPathUnits="userSpaceOnUse"><path
         id="path222"
         d="m 278.86,562.836 h 16.879 V 520.005 H 278.86 Z" /></clipPath><pattern
       patternUnits="userSpaceOnUse"
       width="636.62905"
       height="390.81631"
       patternTransform="translate(223.39896,218.55588)"
       id="pattern704"><g
         clip-path="url(#clipPath18)"
         id="g14"
         transform="matrix(1.3333333,0,0,-1.3575828,-78.589998,809.25236)"><g
           transform="translate(73.8095,386.7243)"
           id="g20"><path
             id="path22"
             style="fill:#494a4d;fill-opacity:1;fill-rule:nonzero;stroke:none"
             d="m 0,0 c -2.207,0 -3.116,-1.021 -3.116,-3.533 v -1.02 c 0,-2.591 0.649,-3.376 3.441,-4.161 l 15.386,-4.082 c 9.089,-2.356 12.14,-6.124 12.14,-14.917 v -3.925 c 0,-8.479 -4.674,-13.111 -13.374,-13.111 h -29.344 l 0.844,7.302 c 0.26,2.198 1.169,3.14 3.116,3.14 h 24.8 c 2.272,0 3.311,1.02 3.311,3.611 v 2.198 c 0,2.669 -0.714,3.533 -3.636,4.318 l -14.866,3.925 c -9.154,2.434 -12.465,6.516 -12.465,15.309 v 2.198 c 0,8.557 4.674,13.189 13.374,13.189 H 26.163 L 25.254,3.14 C 24.994,0.942 24.086,0 22.138,0 Z" /></g><g
           transform="translate(107.5239,341.9757)"
           id="g24"><path
             id="path26"
             style="fill:#494a4d;fill-opacity:1;fill-rule:nonzero;stroke:none"
             d="M 0,0 V 45.991 H 8.872 V 27.869 h 18.665 v 18.122 h 8.872 V 0 H 27.537 V 19.168 H 8.872 V 0 Z" /></g><g
           transform="translate(174.6072,360.9478)"
           id="g28"><path
             id="path30"
             style="fill:#494a4d;fill-opacity:1;fill-rule:nonzero;stroke:none"
             d="m 0,0 c 0.325,0 0.433,0.262 0.325,0.589 l -3.571,9.878 -1.569,5.43 h -0.324 l -1.515,-5.43 -3.625,-9.878 C -10.387,0.262 -10.279,0 -9.954,0 Z m -10.008,24.925 c 0.595,1.571 1.514,2.225 2.921,2.225 h 4.274 c 1.352,0 2.326,-0.654 2.921,-2.225 L 17.096,-18.972 H 9.522 c -1.515,0 -2.597,0.785 -3.084,2.224 l -2.921,8.112 c -0.163,0.458 -0.379,0.589 -0.758,0.589 h -15.418 c -0.379,0 -0.595,-0.131 -0.758,-0.589 l -2.975,-8.112 c -0.487,-1.439 -1.569,-2.224 -3.084,-2.224 h -7.574 z" /></g><g
           transform="translate(217.1838,387.9668)"
           id="g32"><path
             id="path34"
             style="fill:#494a4d;fill-opacity:1;fill-rule:nonzero;stroke:none"
             d="m 0,0 c 8.764,0 13.2,-4.514 13.2,-13.738 v -1.767 C 13.309,-23.879 9.251,-28.131 1.839,-28.393 H 0.974 v -0.589 c 1.623,0 2.434,-0.523 3.408,-1.962 l 10.55,-15.047 H 5.68 c -1.622,0 -2.542,0.392 -3.462,1.832 l -9.089,13.28 c -0.811,1.178 -1.028,2.094 -1.028,4.58 v 4.972 h 7.737 c 3.192,0 4.436,1.57 4.436,4.906 v 2.879 c 0,3.402 -1.353,4.841 -4.436,4.841 h -12.822 v -37.29 h -8.872 V 0 Z" /></g><g
           transform="translate(269.6603,387.9668)"
           id="g36"><path
             id="path38"
             style="fill:#494a4d;fill-opacity:1;fill-rule:nonzero;stroke:none"
             d="M 0,0 -0.703,-6.084 C -0.92,-7.916 -1.677,-8.701 -3.3,-8.701 h -20.991 v -9.617 h 22.019 l -0.649,-5.692 c -0.217,-1.831 -0.974,-2.616 -2.543,-2.616 h -18.827 v -6.608 c 0,-3.009 0.974,-4.056 3.679,-4.056 h 18.286 c 1.623,0 2.38,-0.785 2.596,-2.617 l 0.758,-6.084 h -24.291 c -6.708,0 -9.954,3.925 -9.954,11.972 V 0 Z" /></g><g
           transform="translate(273.155,397.1656)"
           id="g40"><path
             id="path42"
             style="fill:#494a4d;fill-opacity:1;fill-rule:nonzero;stroke:none"
             d="m 0,0 h 42.717 l -0.843,-7.301 c -0.26,-2.198 -1.169,-3.14 -3.117,-3.14 H 26.682 V -55.19 H 16.035 v 44.749 H 4.025 c -1.948,0 -2.857,0.942 -3.116,3.14 z" /></g><g
           transform="translate(341.7095,387.9668)"
           id="g44"><path
             id="path46"
             style="fill:#494a4d;fill-opacity:1;fill-rule:nonzero;stroke:none"
             d="m 0,0 c 8.764,0 13.2,-4.514 13.2,-13.738 v -1.767 C 13.309,-23.879 9.251,-28.131 1.839,-28.393 H 0.974 v -0.589 c 1.623,0 2.434,-0.523 3.408,-1.962 l 10.55,-15.047 H 5.68 c -1.623,0 -2.542,0.392 -3.462,1.832 l -9.089,13.28 c -0.811,1.178 -1.028,2.094 -1.028,4.58 v 4.972 h 7.737 c 3.192,0 4.436,1.57 4.436,4.906 v 2.879 c 0,3.402 -1.353,4.841 -4.436,4.841 h -12.822 v -37.29 h -8.872 V 0 Z" /></g><g
           transform="translate(384.0695,360.9478)"
           id="g48"><path
             id="path50"
             style="fill:#494a4d;fill-opacity:1;fill-rule:nonzero;stroke:none"
             d="m 0,0 c 0.325,0 0.433,0.262 0.325,0.589 l -3.571,9.878 -1.569,5.43 h -0.324 l -1.515,-5.43 -3.625,-9.878 C -10.387,0.262 -10.279,0 -9.954,0 Z m -10.009,24.925 c 0.596,1.571 1.515,2.225 2.922,2.225 h 4.274 c 1.352,0 2.326,-0.654 2.921,-2.225 L 17.096,-18.972 H 9.522 c -1.515,0 -2.597,0.785 -3.084,2.224 l -2.922,8.112 c -0.162,0.458 -0.378,0.589 -0.757,0.589 h -15.418 c -0.379,0 -0.595,-0.131 -0.758,-0.589 l -2.975,-8.112 c -0.487,-1.439 -1.569,-2.224 -3.084,-2.224 h -7.574 z" /></g><g
           transform="translate(437.899,341.9757)"
           id="g52"><path
             id="path54"
             style="fill:#494a4d;fill-opacity:1;fill-rule:nonzero;stroke:none"
             d="M 0,0 H -18.286 C -30.35,0 -35.273,5.757 -35.273,17.729 v 10.533 c 0,11.972 4.923,17.729 16.987,17.729 H -0.541 L -1.298,39.907 C -1.515,38.075 -2.272,37.29 -3.895,37.29 h -14.228 c -5.951,0 -8.278,-2.355 -8.278,-8.636 V 17.337 c 0,-6.281 2.327,-8.636 8.278,-8.636 h 14.769 c 1.623,0 2.38,-0.785 2.597,-2.617 z" /></g><g
           transform="translate(442.4977,341.9757)"
           id="g56"><path
             id="path58"
             style="fill:#494a4d;fill-opacity:1;fill-rule:nonzero;stroke:none"
             d="M 0,0 V 45.991 H 8.872 V 25.645 l 14.175,18.514 c 1.082,1.44 1.785,1.832 3.516,1.832 H 35.49 L 18.664,24.337 c -0.486,-0.655 -0.486,-0.72 0,-1.374 L 36.572,0 H 26.888 C 25.211,0 24.507,0.393 23.425,1.832 L 8.872,20.869 V 0 Z" /></g><path
           id="path60"
           style="fill:#494a4d;fill-opacity:1;fill-rule:nonzero;stroke:none"
           d="m 491.566,341.976 h -8.872 v 45.991 h 8.872 z" /><g
           transform="translate(499.1393,341.9757)"
           id="g62"><path
             id="path64"
             style="fill:#494a4d;fill-opacity:1;fill-rule:nonzero;stroke:none"
             d="m 0,0 v 45.991 h 7.682 c 4.382,0 6.059,-0.785 7.845,-5.037 L 27.916,11.252 c 0.378,-0.785 0.541,-1.046 1.136,-1.046 h 0.378 l -0.919,12.822 v 22.963 h 8.764 V 0 H 29.593 C 25.156,0 23.534,0.785 21.748,5.037 L 9.359,34.739 C 9.035,35.524 8.818,35.785 8.223,35.785 H 7.844 L 8.764,22.963 V 0 Z" /></g><g
           transform="translate(242.9172,455.0708)"
           id="g66"><path
             id="path68"
             style="fill:#494a4d;fill-opacity:1;fill-rule:nonzero;stroke:none"
             d="M 0,0 C -1.822,3.11 -3.282,5.602 -5.1,8.706 -7.431,3.073 -5.687,0.064 0,0 m 35.552,24.914 c 0.564,2.094 -0.132,3.44 -0.443,3.749 -3.134,-5.444 -7.672,-7.777 -13.216,-9.172 -0.592,-0.149 -1.94,-0.049 -1.75,-1.48 0.375,-0.95 1.571,-1.578 2.053,-1.423 3.671,1.179 7.5,2.057 10.496,4.419 1.48,1.166 2.11,1.819 2.86,3.907 m -53.805,17.617 c -0.863,-0.05 -1.336,0.061 -1.642,-0.115 -4.459,-2.572 -7.948,-6.114 -9.919,-10.88 -2.557,-6.18 -1.02,-10.735 4.779,-14.1 5.152,-2.99 10.89,-3.64 16.718,-3.17 0.781,0.062 2.008,1.585 2.064,2.491 0.313,5.113 -3.067,8.433 -8.287,8.462 -7.616,0.043 -10.779,5.525 -6.99,12.177 0.933,1.64 2.028,3.188 3.277,5.135 m -70.815,1.116 c -1.598,-4.568 -5.755,-7.615 -9.936,-7.41 -3.073,0.151 -9.482,-5.951 -8.971,-8.984 0.186,-1.102 1.102,-2.573 3.167,-2.702 3.419,-0.214 7.176,0.664 10.021,2.328 8.542,4.995 16.735,10.587 25.021,16.012 11.305,7.402 22.589,14.835 33.831,22.332 1.816,1.21 3.33,1.421 5.429,0.553 8.854,-3.663 17.827,-7.038 26.682,-10.699 1.496,-0.618 2.941,-1.908 3.869,-3.258 5.612,-8.165 11.058,-16.444 16.581,-24.671 1.545,-2.302 7.176,-2.956 10.474,-1.27 2.782,1.422 3.652,4.057 2.142,7.588 -1.081,2.531 -2.567,4.889 -3.958,7.484 5.735,-1.424 12.353,-9.525 12.302,-14.794 -0.04,-4.098 -3.424,-8.488 -8.048,-10.174 -2.246,-0.819 -4.676,-1.166 -6.863,-2.099 -0.836,-0.356 -1.824,-1.83 -1.717,-2.663 0.503,-3.927 1.312,-7.726 -2.286,-10.864 -0.504,-0.44 -0.189,-2.463 0.369,-3.372 6.893,-11.232 13.905,-22.391 20.873,-33.577 0.437,-0.701 0.768,-1.469 1.341,-2.578 h -11.67 c 0.506,5.988 -2.865,9.617 -7.34,12.566 -1.977,1.303 -2.992,2.719 -1.965,5.382 0.631,1.637 0.117,3.714 0.117,5.895 -1.783,-2.242 -2.878,-5.027 -4.562,-5.444 -3.502,-0.867 -7.361,-0.889 -10.986,-0.481 -3.012,0.338 -4.778,3.393 -4.506,6.538 0.277,3.2 -0.843,5.459 -3.774,6.903 -2.246,1.106 -4.297,2.647 -6.603,3.579 -4.331,1.751 -5.693,5.041 -5.529,9.341 0.024,0.631 0.003,1.264 -0.637,2.165 -0.469,-0.819 -1.287,-1.615 -1.343,-2.461 -0.199,-3.014 -0.392,-6.07 -0.088,-9.06 0.209,-2.06 -0.188,-3.228 -2.051,-4.182 -3.583,-1.836 -7.142,-3.748 -10.536,-5.903 -1.103,-0.701 -1.967,-2.157 -2.397,-3.449 -0.647,-1.943 -0.68,-4.082 -1.215,-6.073 -1.337,-4.965 -0.136,-9.149 3.492,-12.738 0.593,-0.587 0.952,-1.409 1.863,-2.802 -3.873,0 -7.197,-0.099 -10.505,0.092 -0.586,0.033 -1.437,1.199 -1.599,1.962 -1.555,7.347 -3.071,14.703 -4.404,22.092 -0.386,2.141 -1.168,3.297 -3.413,3.609 -3.121,0.434 -6.187,1.357 -9.314,1.612 -1.167,0.095 -2.895,-0.782 -3.584,-1.764 -2.741,-3.903 -3.563,-7.995 -0.447,-12.285 1.13,-1.556 1.503,-3.653 2.6,-5.242 0.989,-1.432 2.402,-2.629 3.796,-3.715 2.223,-1.731 4.586,-3.285 6.891,-4.913 -0.157,-0.447 -0.313,-0.894 -0.47,-1.34 -3.913,0 -7.974,-0.034 -11.727,0.137 -0.552,0.026 -1.598,1.836 -2.391,2.814 -3.638,4.487 -7.058,9.14 -10.873,13.471 -2.247,2.551 -3.218,5.189 -2.913,8.597 0.363,4.07 -0.04,4.329 -4.129,3.657 -3.457,-0.569 -6.863,-1.383 -9.293,-4.242 -3.655,-4.299 -8.507,-6.162 -13.915,-7.092 -1.771,-0.305 -4.041,-0.753 -5.021,-1.981 -2.078,-2.604 -3.543,-5.721 -5.027,-8.742 -0.212,-0.432 0.775,-1.579 1.369,-2.251 1.105,-1.25 2.331,-2.395 3.506,-3.583 -0.114,-0.29 -0.227,-0.58 -0.341,-0.87 -3.215,0 -6.607,0.142 -9.521,0.322 -1.392,0.538 -2.679,4.917 -1.96,6.758 4.707,12.052 9.688,24.011 17.605,34.483 3.211,4.247 5.901,8.889 8.797,13.371 0.506,0.783 0.858,1.666 1.604,3.142 -2.081,-0.366 -3.076,-0.613 -4.969,-0.837 -3.529,-0.417 -7.238,-0.518 -10.632,0.244 -4.526,1.016 -6.197,5.255 -3.673,9.212 2.003,3.14 4.582,6.21 7.593,8.34 4.41,3.117 9.427,5.38 14.212,7.957 0.39,0.209 0.992,0.027 1.555,0.027" /></g><g
           transform="translate(307.9846,474.5224)"
           id="g70"><path
             id="path72"
             style="fill:#7acb43;fill-opacity:1;fill-rule:nonzero;stroke:none"
             d="m 0,0 c -2.887,5.044 -1.388,10.397 1.128,15.299 1.134,2.21 1.489,4.127 0.186,6.388 -0.648,1.125 -0.903,2.57 -1.007,3.895 -0.298,3.804 2.484,6.228 5.753,4.47 2.415,-1.298 4.677,-1.679 6.898,-1.535 v 92.981 L -3.921,111.752 V -8.5 l 5.215,3.011 C 1.453,-3.777 1.135,-1.982 0,0" /></g><g
           transform="translate(278.8597,552.8192)"
           id="g74"><path
             id="path76"
             style="fill:#7acb43;fill-opacity:1;fill-rule:nonzero;stroke:none"
             d="m 0,0 v -63.585 c 0.818,-1.208 1.474,-2.459 1.901,-3.702 C 3.658,-71.525 2.965,-76.098 0,-79.512 v -21.585 l 16.879,9.746 V 9.745 Z" /></g><g
           id="g78"><g
             id="g80" /><g
             mask="url(#mask104)"
             id="g130"><g
               id="g132" /><g
               id="g160"><g
                 id="g158"
                 clip-path="url(#clipPath136)"><g
                   id="g156"><g
                     id="g142" /><g
                     id="g154"><g
                       style="opacity:0.949997"
                       id="g152"
                       clip-path="url(#clipPath140)"><g
                         id="g146"
                         transform="translate(320.9429,544.0504)"><path
                           id="path144"
                           style="fill:#1d6434;fill-opacity:1;fill-rule:nonzero;stroke:none"
                           d="M 0,0 -16.879,-9.745 V 42.302 L 0,52.048 Z" /></g><g
                         id="g150"
                         transform="translate(320.9429,562.9978)"><path
                           id="path148"
                           style="fill:#828f94;fill-opacity:1;fill-rule:nonzero;stroke:none"
                           d="m 0,0 -16.879,-9.745 v 33.1 L 0,33.1 Z" /></g></g></g></g></g></g></g></g><g
           id="g162"><g
             id="g164" /><g
             mask="url(#mask188)"
             id="g214"><g
               id="g216" /><g
               id="g244"><g
                 id="g242"
                 clip-path="url(#clipPath220)"><g
                   id="g240"><g
                     id="g226" /><g
                     id="g238"><g
                       style="opacity:0.949997"
                       id="g236"
                       clip-path="url(#clipPath224)"><g
                         id="g230"
                         transform="translate(295.7392,529.7504)"><path
                           id="path228"
                           style="fill:#1d6434;fill-opacity:1;fill-rule:nonzero;stroke:none"
                           d="M 0,0 -16.879,-9.745 V 23.341 L 0,33.086 Z" /></g><g
                         id="g234"
                         transform="translate(295.7392,548.6978)"><path
                           id="path232"
                           style="fill:#828f94;fill-opacity:1;fill-rule:nonzero;stroke:none"
                           d="M 0,0 -16.879,-9.745 V 4.393 L 0,14.138 Z" /></g></g></g></g></g></g></g></g><g
           transform="translate(260.2167,484.8681)"
           id="g246"><path
             id="path248"
             style="fill:#7acb43;fill-opacity:1;fill-rule:nonzero;stroke:none"
             d="m 0,0 c 1.605,-2.391 4.094,-4.304 7.586,-2.966 3.031,1.16 3.793,4.213 2.225,7.881 -1.124,2.629 -2.824,5.627 -4.269,8.322 2.361,-0.572 3.092,-0.771 5.313,-1.834 V 30.761 L -6.024,21.016 V 9.314 C -1.008,1.508 -5.643,8.406 0,0" /></g><g
           transform="translate(269.1089,468.408)"
           id="g250"><path
             id="path252"
             style="fill:#7acb43;fill-opacity:1;fill-rule:nonzero;stroke:none"
             d="m 0,0 c -0.867,-0.37 -3.148,-0.95 -3.037,-1.815 0.523,-4.079 0.998,-7.447 -2.083,-11.201 -0.804,-0.981 -0.507,-2.701 0.031,-3.669 1.683,-3.03 2.828,-5.15 3.699,-6.312 l 3.353,1.936 V 0.679 C 1.257,0.466 0.588,0.251 0,0" /></g><g
           transform="translate(240.7863,439.9227)"
           id="g254"><path
             id="path256"
             style="fill:#7acb43;fill-opacity:1;fill-rule:nonzero;stroke:none"
             d="m 0,0 c 0.276,3.325 -1.652,5.485 -4.697,6.985 -1.878,0.925 -3.632,2.128 -5.492,3.073 V -16.443 L 4.716,-7.837 C 2.04,-7.25 -0.462,-5.572 0,0" /></g><g
           transform="translate(369.6858,524.2809)"
           id="g258"><path
             id="path260"
             style="fill:#7acb43;fill-opacity:1;fill-rule:nonzero;stroke:none"
             d="M 0,0 V 24.794 L -16.879,15.049 V -2.505 C -11.54,0.756 -5.858,1.268 0,0" /></g><g
           transform="translate(329.1841,505.2518)"
           id="g262"><path
             id="path264"
             style="fill:#7acb43;fill-opacity:1;fill-rule:nonzero;stroke:none"
             d="M 0,0 C 6.111,2.293 11.463,5.602 16.069,9.968 V 60.845 L -0.811,51.1 V -0.302 c 0.27,0.1 0.539,0.2 0.811,0.302" /></g><g
           transform="translate(172.8319,314.9674)"
           id="g266"><path
             id="path268"
             style="fill:#80cc28;fill-opacity:1;fill-rule:nonzero;stroke:none"
             d="m 0,0 c 1.178,-0.369 1.664,-0.665 1.664,-1.872 0,-1.38 -0.563,-1.652 -2.61,-1.652 -1.127,0 -2.561,0.051 -5.832,0.124 l -0.23,-2.707 c 2.709,-0.566 4.935,-0.639 6.062,-0.639 4.808,0 6.546,1.032 6.546,4.898 0,2.488 -0.92,4.041 -3.732,5.001 l -3.352,1.11 c -1.331,0.418 -1.844,0.738 -1.844,1.921 0,1.453 0.666,1.552 2.56,1.552 1.869,0 4.042,-0.024 5.525,-0.074 l 0.254,2.56 c -1.967,0.541 -4.065,0.664 -5.804,0.664 -4.554,0 -6.42,-0.812 -6.42,-4.702 0,-2.513 0.972,-4.04 3.656,-4.976 z M 23.659,10.565 H 19.774 V 4.064 h -6.245 v 6.501 H 9.645 V -6.426 h 3.884 V 1.16 h 6.245 v -7.586 h 3.885 z m 14.427,-12.534 1.28,-4.457 h 3.963 L 38.24,9.582 c -0.154,0.614 -0.69,0.983 -1.355,0.983 h -3.683 c -0.639,0 -1.202,-0.369 -1.355,-0.983 l -5.09,-16.008 h 3.99 l 1.278,4.457 z m -0.844,2.904 h -4.399 l 1.484,5.199 c 0.127,0.518 0.256,1.085 0.383,1.602 h 0.691 C 35.478,7.219 35.631,6.652 35.76,6.134 Z M 60.339,-6.426 58.805,-1.13 C 58.396,0.617 57.195,1.232 56.3,1.43 v 0.122 c 2.505,0.296 3.375,1.821 3.375,4.213 0,3.89 -1.918,5.023 -6.522,5.023 -3.173,0 -4.605,-0.026 -6.725,-0.223 V -6.426 h 3.833 v 6.65 L 53,0.199 c 1.05,0 1.562,-0.344 1.893,-1.428 l 1.331,-5.197 z M 50.261,3.103 v 4.781 l 2.815,0.025 c 2.049,0 2.662,-0.493 2.662,-2.391 0,-1.874 -0.613,-2.415 -2.662,-2.415 z m 25.631,-6.602 h -6.779 c -0.844,0 -1.202,0.37 -1.202,1.282 v 3.278 h 7.034 v 2.707 h -7.034 v 2.588 c 0,0.888 0.358,1.257 1.202,1.257 h 6.779 l 0.178,2.78 C 73.667,10.64 70.622,10.64 67.885,10.64 65.535,10.64 64.026,9.31 64,7.218 V -3.08 c 0.026,-2.092 1.535,-3.42 3.885,-3.42 2.737,0 5.782,0 8.185,0.245 z M 93.285,7.515 v 3.05 H 78.836 v -3.05 h 5.27 V -6.426 h 3.911 V 7.515 Z m 17.446,-13.941 -1.535,5.296 c -0.408,1.747 -1.61,2.362 -2.503,2.56 v 0.122 c 2.503,0.296 3.373,1.821 3.373,4.213 0,3.89 -1.916,5.023 -6.521,5.023 -3.174,0 -4.605,-0.026 -6.726,-0.223 V -6.426 h 3.834 v 6.65 l 2.739,-0.025 c 1.049,0 1.561,-0.344 1.894,-1.428 l 1.33,-5.197 z m -10.078,9.529 v 4.781 l 2.815,0.025 c 2.048,0 2.662,-0.493 2.662,-2.391 0,-1.874 -0.614,-2.415 -2.662,-2.415 z m 23.457,-5.072 1.279,-4.457 h 3.963 l -5.088,16.008 c -0.154,0.614 -0.691,0.983 -1.355,0.983 h -3.683 c -0.639,0 -1.203,-0.369 -1.356,-0.983 l -5.09,-16.008 h 3.991 l 1.278,4.457 z m -0.844,2.904 h -4.399 l 1.484,5.199 c 0.127,0.518 0.256,1.085 0.383,1.602 h 0.691 c 0.077,-0.517 0.23,-1.084 0.358,-1.602 z m 21.154,-4.187 c -1.561,-0.197 -2.968,-0.221 -5.321,-0.221 -2.558,0 -3.326,1.256 -3.326,5.542 0,4.287 0.768,5.544 3.326,5.544 2.226,0 3.299,-0.025 4.962,-0.124 l 0.333,2.806 c -1.611,0.394 -2.813,0.566 -5.295,0.566 -5.446,0 -7.415,-2.313 -7.415,-8.792 0,-6.479 1.969,-8.791 7.415,-8.791 2.533,0 4.016,0.197 5.653,0.688 z m 9.336,4.313 4.655,-7.487 h 4.349 l -4.655,7.266 c -0.359,0.566 -0.972,1.156 -1.484,1.5 v 0.099 c 0.512,0.37 0.921,0.739 1.28,1.353 l 4.552,6.773 h -4.221 l -4.476,-6.822 h -1.508 c 0.127,0.665 0.178,1.355 0.178,2.019 v 4.803 h -3.885 V -6.426 h 3.885 v 5.861 c 0,0.493 -0.077,1.06 -0.178,1.626 z m 16.09,9.504 h -3.885 V -6.428 h 3.885 z m 19.747,0 h -3.681 V 0.788 c 0,-0.96 0.078,-1.897 0.155,-2.858 h -0.256 c -0.41,0.961 -0.896,1.995 -1.28,2.735 l -4.479,8.793 c -0.383,0.738 -0.742,1.107 -1.561,1.107 h -2.376 c -0.921,0 -1.406,-0.466 -1.406,-1.352 V -6.426 h 3.706 V 3.671 c 0,0.888 -0.051,1.824 -0.18,2.71 h 0.282 c 0.204,-0.837 0.716,-1.897 1.075,-2.636 l 4.632,-9.064 c 0.383,-0.738 0.742,-1.107 1.561,-1.107 h 2.428 c 0.919,0 1.38,0.467 1.38,1.353 z m 5.706,-13.276 c -0.997,0 -1.329,-0.294 -1.329,-1.255 v -1.18 c 0,-0.961 0.332,-1.28 1.329,-1.28 h 1.022 c 0.996,0 1.33,0.319 1.33,1.28 v 1.18 c 0,0.961 -0.334,1.255 -1.33,1.255 z m 18.876,-0.541 c -1.561,-0.197 -2.968,-0.221 -5.321,-0.221 -2.558,0 -3.326,1.256 -3.326,5.542 0,4.287 0.768,5.544 3.326,5.544 2.226,0 3.3,-0.025 4.962,-0.124 l 0.333,2.806 c -1.612,0.394 -2.813,0.566 -5.295,0.566 -5.447,0 -7.415,-2.313 -7.415,-8.792 0,-6.479 1.968,-8.791 7.415,-8.791 2.532,0 4.016,0.197 5.653,0.688 z m 10.821,14.138 c -5.576,0 -7.544,-1.994 -7.544,-8.817 0,-6.823 1.968,-8.815 7.544,-8.815 5.576,0 7.571,1.992 7.571,8.815 0,6.823 -1.995,8.817 -7.571,8.817 m 0,-3.026 c 2.662,0 3.456,-1.282 3.456,-5.791 0,-4.508 -0.794,-5.789 -3.456,-5.789 -2.662,0 -3.455,1.281 -3.455,5.789 0,4.509 0.793,5.791 3.455,5.791 m 26.001,2.705 c -0.872,0 -1.384,-0.418 -1.588,-1.205 l -2.127,-8.474 c -0.179,-0.813 -0.307,-1.601 -0.461,-2.389 h -0.333 c -0.128,0.788 -0.255,1.576 -0.461,2.389 l -2.152,8.474 c -0.18,0.787 -0.691,1.205 -1.536,1.205 h -3.767 c -0.948,0 -1.408,-0.491 -1.459,-1.401 l -0.641,-15.59 h 3.688 l 0.513,14.063 h 0.435 l 2.69,-10.518 c 0.179,-0.812 0.718,-1.206 1.588,-1.206 h 2.562 c 0.872,0 1.409,0.394 1.588,1.206 l 2.665,10.518 h 0.436 l 0.587,-14.063 h 3.682 l -0.691,15.59 c -0.025,0.91 -0.511,1.401 -1.457,1.401 z" /></g><g
           transform="translate(405.4421,446.2929)"
           id="g270"><path
             id="path272"
             style="fill:#494a4d;fill-opacity:1;fill-rule:nonzero;stroke:none"
             d="m 0,0 c -1.233,0.195 -2.294,0.437 -3.692,0.61 -2.949,0.364 -4.461,-0.396 -5.003,-3.022 -0.909,-4.407 -1.725,-8.84 -2.352,-13.297 -0.477,-3.386 -3.866,-5.442 -6.388,-4.644 -0.531,0.168 -1.242,1.055 -0.894,2.439 1.778,7.081 4.055,13.797 4.57,21.012 0.105,1.472 1.244,2.105 2.374,2.018 C -7.897,4.849 -5.767,3.856 -1.244,2.151 -0.641,1.924 0.1,1.552 0.338,0.768 0.338,0.483 0.543,-0.133 0,0 m -61.018,46.253 c -0.317,0.032 -0.635,0.064 -0.952,0.096 -0.109,3.805 -2.657,4.878 -6.178,5.135 1.937,2.22 3.746,3.749 5.883,2.477 1.421,-0.845 3.055,-2.421 3.024,-4.397 -0.014,-0.887 -1.132,-2.192 -1.777,-3.311 m -22,-15.976 2.693,7.989 c 3.078,-3.621 2.137,-6.37 -2.693,-7.989 m 143.527,0.689 c -5.441,11.484 -13.279,20.97 -23.74,28.331 -11.553,8.127 -24.688,10.68 -38.38,11.389 -4.225,0.219 -8.471,0.034 -12.708,0.034 -0.145,-0.429 -0.29,-0.858 -0.435,-1.287 2.426,-2.971 4.852,-5.942 7.522,-9.213 -7.241,3.991 -13.796,8.072 -20.74,11.322 -10.571,4.946 -20.836,5.609 -29.778,-3.877 -4.757,-5.045 -10.432,-8.777 -17.043,-11.257 -4.849,-1.819 -9.246,-3.395 -14.365,-0.643 -3.102,1.668 -5.742,-0.632 -5.459,-4.241 0.099,-1.258 0.341,-2.629 0.955,-3.696 1.237,-2.146 0.9,-3.965 -0.176,-6.061 -2.388,-4.652 -3.81,-9.732 -1.07,-14.517 2.486,-4.343 0.852,-7.741 -0.992,-11.396 -0.484,-0.959 -1.324,-1.88 -1.401,-2.865 -0.08,-1.035 -0.019,-2.423 0.926,-3.075 4.311,-2.976 10.292,-4.255 15.04,-0.422 4.944,3.993 9.877,7.419 16.143,9.176 2.918,0.819 5.261,3.684 8.344,5.978 -0.458,-4.145 -2.989,-6.158 -5.729,-7.662 -5.489,-3.013 -11.648,-4.938 -15.789,-10.038 -0.981,-1.209 -2.143,-2.458 -2.588,-3.887 -3.485,-11.164 -9.734,-20.509 -18.277,-28.394 -1.705,-1.572 -3.459,-3.091 -5.893,-5.262 1.878,-0.111 6.282,-0.157 7.227,0.028 6.688,1.303 9.739,3.067 15.328,7.199 1.353,1.001 2.859,2.111 4.445,2.433 12.711,2.585 22.251,9.737 29.722,20.052 1.143,1.578 1.218,2.812 -0.151,4.255 -2.044,2.154 -3.974,4.416 -5.953,6.631 1.39,-0.044 2.338,-0.513 3.232,-1.07 0.542,-0.338 0.997,-0.814 1.495,-1.224 7.091,-5.828 9.823,-13.838 11.327,-22.491 0.886,-5.101 0.906,-5.01 -3.682,-6.933 -1.963,-0.823 -3.839,-1.942 -5.58,-3.172 -0.898,-0.635 -2.49,-1.428 -2.307,-3.014 0.063,-0.597 1.473,-0.464 1.876,-0.464 16.143,-0.003 32.286,-0.063 48.426,0.15 1.436,0.019 3.102,1.604 4.203,2.863 1.17,1.337 1.744,3.182 2.666,4.753 4.347,7.399 9.405,14.179 17.233,18.238 1.217,0.631 3.153,0.695 4.454,0.21 7.03,-2.619 10.744,-8.653 14.287,-14.7 2.4,-4.098 2.175,-4.05 -2.266,-6.169 -2.133,-1.018 -4.913,-1.708 -5.307,-4.868 -0.056,-0.572 0.76,-0.449 1.043,-0.449 8.608,-0.009 17.216,0.024 25.824,0.005 2.259,-0.005 3.007,1.517 3.302,3.279 0.939,5.613 2.218,11.223 2.522,16.879 0.735,13.645 -1.87,26.764 -7.733,39.142" /></g></g></pattern><clipPath
       clipPathUnits="userSpaceOnUse"
       id="clipPath1150"><rect
         style="fill:#00ff00;stroke-width:0.999999"
         id="rect1152"
         width="698.08435"
         height="294.59161"
         x="196.8598"
         y="473.30121" /></clipPath></defs><g
     inkscape:label="Layer 1"
     inkscape:groupmode="layer"
     id="layer1"
     transform="translate(-50.725884,-94.626918)"><rect
       style="fill:url(#pattern704);stroke:none"
       transform="matrix(0.26458333,0,0,0.26458333,-8.3817559,-35.873728)"
       width="636.62903"
       height="390.81631"
       x="223.39896"
       y="218.55588"
       id="rect778"
       inkscape:transform-center-x="-1.108209"
       inkscape:transform-center-y="16.992537"
       clip-path="url(#clipPath1150)" /></g></svg>
